<?xml version="1.0" standalone="no"?>
<!DOCTYPE svg PUBLIC "-//W3C//DTD SVG 20010904//EN"
 "http://www.w3.org/TR/2001/REC-SVG-20010904/DTD/svg10.dtd">
<svg version="1.0" xmlns="http://www.w3.org/2000/svg"
 width="128px" height="90px" viewBox="0 0 1280.000000 905.000000"
 preserveAspectRatio="xMidYMid meet">

<g transform="translate(0.000000,905.000000) scale(0.100000,-0.100000)"
fill="#ffffff" stroke="none">
<path d="M4092 7623 c-6 -16 -25 -49 -42 -74 -68 -104 -79 -280 -25 -394 70
-146 251 -277 470 -339 89 -25 334 -66 394 -66 38 0 39 -9 10 -134 -13 -55
-46 -144 -84 -226 -84 -182 -137 -289 -129 -265 26 85 127 374 135 392 7 12 9
32 6 45 -4 13 0 46 7 73 15 58 12 75 -13 68 -16 -4 -19 -14 -46 -133 -3 -14 5
6 19 43 23 66 45 106 32 57 -32 -114 -118 -370 -161 -480 -29 -74 -68 -173
-85 -220 -18 -47 -43 -107 -55 -135 -12 -27 -41 -104 -64 -170 -23 -66 -50
-138 -61 -160 -49 -101 -81 -189 -76 -209 5 -19 -54 -238 -75 -277 -4 -9 -38
-29 -74 -44 -60 -26 -63 -29 -44 -39 12 -6 21 -15 19 -20 -3 -13 28 -29 40
-21 6 3 10 3 10 0 0 -3 -25 -17 -55 -30 -32 -14 -55 -31 -55 -40 0 -8 4 -15 9
-15 10 0 37 -61 33 -73 -1 -5 11 -6 28 -2 18 4 30 3 30 -3 0 -6 14 -13 30 -17
17 -4 28 -10 25 -15 -3 -4 2 -11 11 -14 8 -3 14 -14 12 -23 -2 -15 4 -18 35
-17 25 1 37 -3 37 -12 0 -8 7 -14 15 -14 8 0 15 -7 15 -16 0 -15 12 -16 108
-9 59 3 124 10 145 15 20 4 37 5 37 1 -1 -11 -93 -76 -105 -73 -11 2 -106 -93
-270 -272 -89 -97 -111 -127 -84 -110 11 6 12 5 3 -7 -31 -40 -201 -268 -216
-290 -9 -13 -17 -19 -17 -14 -1 6 43 68 97 139 53 71 103 137 111 148 7 10 11
18 8 18 -9 0 -159 -190 -230 -291 -74 -107 -176 -291 -182 -329 -11 -72 -24
-121 -35 -135 -7 -8 -9 -15 -5 -15 4 0 15 10 26 23 10 12 18 17 19 10 0 -6 -4
-15 -10 -18 -5 -3 -10 -15 -10 -26 0 -17 3 -18 21 -7 11 7 23 25 26 40 5 26
43 71 43 52 1 -5 7 6 16 25 8 19 17 31 20 28 12 -12 -6 -54 -40 -98 -25 -31
-32 -46 -23 -51 7 -4 17 -1 23 7 14 19 25 19 18 0 -13 -33 12 -12 29 24 9 21
24 38 31 38 12 0 13 -5 5 -20 -16 -29 -2 -33 20 -6 28 33 26 19 -6 -46 l-27
-56 -46 7 c-25 4 -50 11 -57 16 -7 5 -16 7 -20 5 -10 -6 -149 21 -344 69
l-146 35 0 163 c-1 175 -16 283 -57 402 -27 82 -98 225 -134 272 -14 18 -22
35 -19 39 11 11 -87 115 -148 156 -33 23 -66 47 -74 54 -25 25 -150 83 -366
170 -130 52 -435 133 -582 154 -383 56 -652 -33 -750 -248 -153 -334 177 -712
967 -1108 381 -191 699 -312 1090 -415 163 -43 232 -66 265 -87 12 -7 54 -19
95 -28 41 -8 118 -23 171 -34 52 -11 149 -24 215 -30 65 -6 141 -13 168 -16
30 -3 46 -1 40 5 -5 5 -65 14 -133 20 -69 5 -127 13 -130 17 -7 7 103 -1 299
-21 244 -26 485 -36 833 -36 448 0 928 30 1522 95 77 9 442 49 810 90 872 96
859 95 1220 102 351 6 550 -5 774 -42 168 -29 154 -28 146 -15 -4 6 6 7 27 4
55 -10 186 -44 215 -55 16 -6 51 -13 78 -14 30 -2 90 -20 150 -45 93 -39 124
-55 265 -133 30 -17 120 -83 198 -146 191 -154 304 -242 417 -325 52 -38 93
-72 90 -76 -6 -9 73 -85 81 -77 12 12 -67 95 -149 158 -127 97 -129 102 -5 21
38 -24 76 -54 85 -66 10 -12 26 -25 35 -29 30 -11 107 -119 164 -230 30 -59
53 -111 50 -115 -6 -10 11 -38 19 -30 3 3 -1 23 -9 43 -9 21 -16 45 -16 54 0
25 59 -69 71 -114 10 -34 13 -37 19 -20 4 11 4 28 -1 37 -6 10 -5 19 1 23 7 4
7 12 0 25 -17 31 -11 37 10 10 11 -14 20 -33 20 -44 0 -12 5 -16 15 -12 8 3
15 2 15 -3 0 -5 9 -11 21 -14 13 -4 18 -10 13 -18 -4 -8 -3 -10 4 -5 9 5 5 19
-11 49 -12 23 -25 44 -29 47 -4 3 -3 12 1 19 7 11 11 9 20 -7 6 -11 11 -27 11
-35 0 -19 39 -67 40 -49 0 7 -5 22 -11 34 -17 31 -2 33 16 1 9 -15 14 -20 11
-10 -3 9 -10 48 -16 85 -18 106 -95 266 -189 392 -61 82 -175 210 -186 210 -5
0 9 -19 32 -42 45 -47 163 -196 163 -205 0 -8 3 -11 -70 82 -35 44 -81 99
-103 123 -23 23 -37 42 -32 42 24 0 -221 221 -342 308 -41 30 -84 52 -108 57
-22 3 -55 15 -73 26 -18 10 -38 19 -44 19 -6 0 -36 15 -67 34 -217 131 -505
246 -781 312 -118 28 -396 74 -451 74 -56 0 -53 10 9 43 118 61 231 158 345
298 43 52 113 205 131 286 32 144 15 290 -43 372 -28 39 -27 43 13 40 19 -2
38 0 42 4 4 4 -2 7 -14 7 -11 0 -24 5 -27 10 -4 6 -10 8 -15 5 -4 -3 -11 2
-14 11 -5 14 -1 16 26 12 47 -7 60 -1 48 23 -8 14 -22 19 -51 19 -23 0 -47 7
-55 15 -9 8 -11 15 -5 15 6 0 11 5 11 10 0 6 -13 10 -30 10 -18 0 -33 7 -39
18 -9 17 -6 19 31 15 23 -2 53 -13 66 -24 14 -10 31 -19 38 -19 8 0 14 -5 14
-12 0 -20 13 1 16 26 1 15 -4 27 -13 30 -14 6 -14 8 3 21 15 11 16 14 4 15 -8
0 -28 10 -45 21 -16 12 -22 19 -12 15 21 -7 23 10 2 18 -8 3 -15 16 -15 28 0
21 2 20 20 -9 22 -37 50 -44 50 -13 0 11 -4 20 -10 20 -5 0 -10 4 -10 10 0 5
7 7 15 4 18 -7 65 3 65 14 0 4 -21 7 -47 7 -35 0 -47 4 -45 13 1 8 -2 11 -6 8
-5 -3 -16 2 -25 12 -23 27 -84 153 -91 192 -6 30 -4 28 18 -19 30 -62 76 -123
114 -150 31 -22 77 -18 87 8 5 12 3 13 -6 4 -23 -23 -79 18 -129 98 -70 108
-140 394 -140 569 l0 95 118 103 c64 56 161 138 215 183 l98 81 -3 -146 c-2
-81 1 -141 6 -136 4 4 10 72 11 151 3 112 7 145 19 158 15 14 16 14 16 -2 0
-9 5 -17 11 -17 7 0 9 9 5 24 -4 16 0 29 13 40 17 16 18 14 25 -30 3 -26 6
-95 7 -153 1 -103 1 -105 13 -61 7 25 11 61 8 80 -3 19 -1 32 3 28 5 -5 14
-54 20 -110 7 -57 13 -93 14 -80 0 12 5 22 11 22 5 0 9 -3 9 -7 -4 -25 3 -53
12 -53 7 0 9 14 5 43 -4 23 -11 94 -15 157 -5 63 -15 139 -21 169 -12 56 -7
106 10 96 6 -3 11 -18 11 -33 1 -27 1 -27 9 3 l7 30 7 -40 c4 -22 11 -60 16
-85 6 -25 10 -130 9 -235 0 -104 4 -210 8 -235 l9 -45 8 70 c4 39 9 95 10 125
4 113 8 164 13 148 2 -10 8 -18 11 -18 4 0 6 -62 5 -137 -1 -107 1 -126 7 -83
27 174 36 402 24 610 -11 191 -10 244 9 278 21 35 14 42 -15 15 -26 -23 -36
-7 -16 27 15 27 15 28 -3 33 -11 3 -26 -1 -34 -9 -14 -15 -31 -2 -20 15 3 5 0
13 -6 17 -6 4 -30 46 -52 93 -75 161 -157 285 -260 390 -207 213 -451 346
-773 421 -212 50 -273 55 -614 54 -469 -1 -691 -30 -1375 -185 -523 -117 -498
-112 -810 -164 -331 -54 -441 -69 -665 -95 -135 -15 -473 -40 -542 -40 -5 0
-6 -4 -3 -10 4 -6 -25 -10 -79 -10 -47 0 -88 -5 -91 -10 -4 -6 -13 -7 -23 -2
-9 5 -42 14 -74 21 -51 11 -102 30 -268 101 -98 42 -162 89 -179 131 l-10 24
0 -26 c-1 -30 34 -66 99 -103 25 -14 41 -26 35 -26 -5 0 -41 17 -79 38 -45 26
-73 49 -82 68 -8 16 -12 21 -9 10 4 -13 1 -17 -10 -12 -10 3 -15 -1 -15 -11 0
-13 -3 -14 -11 -6 -8 8 -8 28 -2 67 8 47 8 54 -4 45 -17 -15 -17 -3 3 55 9 26
14 50 11 53 -7 7 -44 -69 -52 -109 -11 -47 -24 -14 -14 35 4 23 11 51 14 62 6
16 5 17 -4 5 -9 -12 -11 -11 -11 10 l-1 25 -15 -25 -15 -25 5 25 c3 14 9 36
12 50 5 20 4 22 -6 10 -10 -12 -11 -11 -7 8 3 14 0 22 -8 22 -8 0 -17 -16 -20
-37 -8 -50 -26 -92 -32 -75 -3 7 0 19 6 26 9 10 9 15 1 18 -7 2 -6 15 5 40 20
49 20 83 -1 46 -18 -35 -23 -35 -16 -3 6 33 -1 32 -16 -2z m4685 -48 c138 -15
283 -44 366 -71 63 -21 56 -28 -8 -8 -94 28 -310 63 -465 75 -329 25 -865 -18
-1263 -102 -54 -12 -100 -19 -103 -17 -6 7 225 53 381 77 111 17 329 42 470
54 121 10 503 5 622 -8z m-4600 -117 c-3 -7 -5 -2 -5 12 0 14 2 19 5 13 2 -7
2 -19 0 -25z m5128 -8 c22 -11 29 -17 15 -14 -38 10 -87 32 -70 33 8 0 33 -8
55 -19z m-2018 -6 c-3 -3 -12 -4 -19 -1 -8 3 -5 6 6 6 11 1 17 -2 13 -5z
m2199 -80 c18 -14 18 -14 -6 -3 -31 14 -36 19 -24 19 6 0 19 -7 30 -16z
m-5181 -92 c-3 -3 -11 0 -18 7 -9 10 -8 11 6 5 10 -3 15 -9 12 -12z m26 -29
c13 -16 12 -17 -3 -4 -17 13 -22 21 -14 21 2 0 10 -8 17 -17z m34 -23 c3 -5 1
-10 -4 -10 -6 0 -11 5 -11 10 0 6 2 10 4 10 3 0 8 -4 11 -10z m4513 -24 c402
-72 670 -246 851 -554 28 -47 30 -55 17 -73 -13 -19 -15 -17 -46 33 -18 29
-44 71 -58 93 -196 314 -506 477 -982 515 l-105 9 120 -5 c66 -2 157 -10 203
-18z m-4761 -146 c16 -19 20 -29 11 -21 -22 17 -98 129 -98 145 0 6 14 -11 30
-39 16 -27 42 -66 57 -85z m4743 101 c225 -42 408 -120 550 -234 79 -64 202
-214 195 -237 -3 -9 2 -25 11 -36 14 -18 15 -18 4 4 -7 13 -9 26 -6 29 2 3 23
-32 46 -77 23 -45 39 -84 36 -87 -2 -3 -12 8 -21 24 -9 15 -13 19 -10 8 4 -11
9 -27 12 -36 3 -11 -49 -67 -161 -173 -91 -86 -170 -156 -175 -156 -4 0 0 30
10 67 11 37 19 82 19 100 0 18 9 56 20 85 25 66 25 71 -1 57 -17 -9 -23 -8
-30 2 -18 28 -20 58 -7 85 18 36 13 71 -8 54 -11 -10 -20 -6 -44 19 l-31 30
-19 -32 c-11 -18 -20 -36 -20 -41 0 -4 -7 -6 -15 -2 -8 3 -19 -3 -25 -12 -11
-16 -11 -16 -6 1 3 9 9 23 12 31 6 16 -33 29 -42 14 -4 -7 -10 -4 -16 6 -5 9
-14 16 -19 16 -6 0 -7 -5 -4 -10 8 -13 -14 -42 -25 -35 -4 3 -10 -2 -14 -10
-3 -8 -13 -15 -23 -15 -14 0 -14 3 5 20 25 23 27 35 10 46 -6 4 -17 -1 -25
-11 -12 -17 -13 -16 -14 16 0 19 -4 43 -9 54 -7 14 -9 3 -8 -40 1 -46 -7 -81
-32 -147 -18 -49 -35 -87 -36 -85 -2 1 3 45 10 97 8 52 10 100 6 105 -5 6 -10
23 -12 40 -2 19 -9 31 -20 33 -15 3 -18 -4 -16 -40 1 -37 2 -38 5 -10 2 17 8
32 13 32 27 0 -53 -388 -105 -510 -12 -30 -33 -86 -45 -123 -12 -38 -35 -95
-51 -127 -16 -32 -29 -62 -29 -65 0 -4 -36 -93 -81 -198 -113 -268 -165 -411
-206 -567 -37 -140 -38 -148 -32 -320 3 -102 3 -103 18 -70 8 19 14 38 13 41
0 3 5 6 13 6 14 0 16 -21 4 -42 -3 -5 -6 -22 -7 -38 -2 -25 0 -26 18 -15 20
13 40 57 40 87 0 20 22 71 31 71 3 0 11 -10 18 -22 l11 -23 -5 22 c-9 36 5 93
21 86 8 -3 14 -14 14 -25 0 -29 -22 -98 -31 -98 -4 0 -10 -13 -14 -30 -4 -16
-11 -30 -16 -30 -5 0 -9 -6 -9 -14 0 -8 11 -13 26 -13 18 0 28 7 35 25 11 29
18 26 21 -11 3 -33 15 -26 23 16 4 17 18 52 32 77 13 25 21 34 17 21 -5 -17
-3 -22 7 -16 9 6 10 3 5 -11 -11 -26 -16 -64 -8 -64 15 0 29 17 41 48 24 57
29 44 12 -33 -10 -48 -18 -70 -24 -62 -5 7 -6 3 -2 -11 6 -20 4 -23 -12 -20
-10 2 -23 -3 -30 -12 -11 -13 -12 -12 -13 5 -1 13 -6 8 -17 -17 -16 -40 -35
-52 -26 -18 8 30 -14 24 -31 -7 -19 -35 -19 -31 -1 37 8 30 12 56 10 58 -3 3
-6 -1 -9 -9 -11 -40 -28 -105 -32 -123 -4 -23 -126 -277 -130 -273 -2 1 18 57
43 122 26 66 49 140 53 165 4 25 11 53 15 63 5 12 3 17 -9 17 -16 0 -20 -10
-17 -40 2 -26 -56 -186 -120 -331 -59 -133 -79 -163 -79 -119 0 91 -79 338
-126 396 -19 22 -34 46 -34 53 0 6 -4 11 -9 11 -5 0 -7 -9 -4 -20 8 -30 -12
-24 -24 8 -9 24 -11 25 -18 8 -5 -11 -3 -26 4 -38 9 -15 9 -23 0 -34 -19 -23
-29 -16 -29 21 0 40 -29 52 -31 13 0 -13 -3 -17 -6 -10 -6 16 -24 16 -21 0 2
-7 -5 -12 -14 -10 -12 2 -18 -4 -18 -15 -1 -11 -6 -6 -14 13 -8 18 -20 35 -27
39 -9 6 -10 3 -4 -11 4 -10 9 -32 11 -49 4 -25 3 -27 -5 -10 -8 17 -10 18 -10
3 -1 -22 -21 -24 -21 -2 0 8 -4 12 -10 9 -5 -3 -10 -16 -10 -28 0 -30 -37 -88
-60 -94 -12 -3 -32 -36 -56 -89 -21 -46 -39 -82 -41 -81 -1 2 6 28 17 58 16
42 21 86 25 204 3 118 2 141 -6 105 -16 -70 -28 -69 -23 1 4 63 4 64 -11 32
-8 -17 -15 -47 -16 -65 -3 -56 -21 -109 -36 -104 -9 4 -13 -5 -13 -32 -1 -20
-8 -48 -16 -62 -14 -24 -15 -23 -10 25 4 28 19 88 35 133 25 71 27 82 13 80
-9 -2 -22 -16 -29 -33 -10 -27 -12 -28 -12 -7 -1 34 -21 16 -21 -18 0 -34 -28
-110 -41 -110 -5 0 -7 6 -5 13 16 48 16 66 1 61 -8 -4 -15 -16 -15 -28 0 -12
-7 -31 -14 -42 -13 -17 -13 -12 -1 36 19 80 28 159 16 140 -6 -8 -11 -28 -11
-44 0 -58 -43 -204 -84 -286 -42 -86 -187 -313 -207 -325 -5 -4 11 26 37 67
64 99 174 321 174 351 0 13 7 46 15 73 19 62 19 85 1 78 -16 -6 -28 -52 -14
-56 24 -8 -99 -283 -190 -423 -108 -167 -248 -322 -330 -364 -22 -11 -44 -21
-47 -21 -29 0 69 282 155 444 90 172 119 254 113 323 -5 42 -8 50 -22 45 -13
-4 -14 -3 -5 9 6 8 14 23 18 33 6 16 4 17 -10 5 -14 -11 -18 -10 -33 9 -16 21
-17 21 -40 5 -14 -9 -21 -11 -17 -5 3 6 2 13 -4 17 -5 3 -10 -1 -10 -9 0 -8
-9 -20 -19 -26 -29 -15 -36 -12 -18 8 20 22 11 37 -11 19 -13 -10 -15 -9 -10
3 3 8 8 26 12 40 5 21 3 20 -9 -5 -8 -16 -14 -35 -15 -42 0 -7 -9 -17 -21 -23
-11 -7 -18 -14 -15 -17 5 -6 -38 -89 -55 -108 -6 -5 4 24 22 65 31 74 47 150
32 150 -4 0 -9 -11 -9 -24 -2 -26 -134 -319 -141 -312 -2 2 -8 34 -14 70 -12
87 -43 150 -104 212 -39 40 -62 55 -105 67 -72 19 -160 30 -140 17 21 -13 6
-12 -25 2 -18 8 -22 14 -13 20 34 21 -33 5 -91 -22 -35 -17 -66 -28 -69 -26
-2 3 -14 0 -26 -7 -11 -6 -28 -12 -37 -13 -40 -3 -169 -135 -270 -274 -30 -41
-59 -79 -65 -85 -6 -5 -19 -21 -28 -35 -17 -25 -17 -25 -9 20 12 71 7 162 -12
221 -25 75 -117 167 -200 199 -84 33 -230 34 -330 3 -39 -12 -78 -30 -87 -40
-9 -10 -37 -34 -62 -53 -46 -35 -55 -51 -16 -30 12 6 25 8 28 4 4 -4 2 -9 -4
-11 -6 -2 -19 -10 -29 -17 -32 -23 0 -25 45 -3 32 16 44 19 47 9 3 -6 10 -9
16 -5 7 3 8 2 4 -3 -5 -5 -12 -9 -15 -10 -22 -3 -68 -31 -65 -39 5 -15 -276
-640 -284 -631 -5 4 26 257 39 316 6 30 10 112 9 183 -2 88 1 133 9 143 10 11
10 14 0 14 -10 0 -10 3 -1 14 15 18 -1 29 -32 21 -16 -4 -9 6 26 38 45 41 47
45 27 50 -44 11 -8 25 102 37 137 15 326 53 367 74 42 22 85 20 129 -7 56 -35
119 -56 199 -66 71 -9 213 1 263 18 96 32 102 33 111 20 7 -12 12 -12 31 0 70
44 115 67 128 66 8 -1 27 5 43 12 25 13 32 10 28 -10 -1 -5 27 13 61 40 82 63
238 219 313 313 33 41 66 79 73 83 7 5 33 35 57 68 l43 59 -5 -113 c-8 -170
23 -277 115 -393 44 -56 123 -112 192 -138 125 -45 321 -37 457 20 25 10 32
11 30 1 -1 -6 5 -12 13 -12 8 0 18 -4 22 -10 5 -6 8 -3 8 6 0 9 20 27 45 40
25 13 45 27 45 31 0 5 10 6 23 4 12 -2 34 3 50 11 24 12 27 12 27 -2 0 -38
257 199 375 345 29 36 69 82 88 103 54 56 172 237 227 347 164 327 194 624 84
846 -57 114 -200 256 -247 245 -5 -1 -32 5 -60 13 -71 20 -180 33 -251 32 -57
-2 -59 -1 -29 11 31 12 53 33 35 33 -26 0 -125 -36 -178 -65 -33 -18 -71 -32
-85 -31 -13 1 -40 -8 -59 -21 -41 -27 -52 -29 -43 -6 10 25 -39 -12 -137 -104
-99 -93 -216 -228 -305 -353 -38 -52 -79 -106 -93 -120 -13 -13 -30 -37 -38
-52 -8 -16 -16 -28 -17 -28 -1 0 -1 47 1 104 8 203 -44 351 -170 489 -38 42
-72 76 -76 75 -4 -1 -18 3 -32 9 -86 36 -202 56 -329 57 -70 0 -72 1 -43 13
30 12 52 33 34 33 -26 0 -125 -36 -178 -65 -33 -18 -71 -32 -85 -31 -13 1 -39
-9 -58 -21 -40 -27 -56 -29 -47 -7 5 12 0 11 -22 -5 -106 -77 -315 -304 -432
-469 -33 -48 -76 -106 -95 -129 -95 -119 -226 -372 -281 -543 -14 -43 -33
-123 -42 -177 l-17 -98 -95 -17 c-328 -57 -400 -66 -400 -50 0 4 16 46 36 92
19 47 46 116 60 154 13 38 28 74 33 80 8 10 170 387 221 516 38 94 101 283
106 320 3 19 12 58 21 85 9 28 16 64 16 80 -5 179 -9 232 -15 228 -5 -2 -8
-10 -8 -17 0 -8 -9 -24 -21 -37 l-20 -24 6 30 c3 17 7 40 9 52 2 12 8 27 12
34 4 7 -7 3 -24 -9 -22 -16 -33 -34 -37 -60 -8 -46 -25 -92 -35 -92 -4 0 -12
10 -18 23 -11 21 -11 21 -6 -4 8 -36 -15 -117 -27 -98 -16 26 -9 83 16 124 13
22 25 48 25 58 0 9 5 17 10 17 6 0 10 5 10 11 0 6 -6 9 -14 6 -8 -3 -17 -1
-20 6 -4 9 -8 9 -11 1 -3 -6 -12 -20 -20 -30 -14 -18 -14 -18 -15 3 0 24 -19
43 -21 21 -4 -39 -16 -73 -41 -112 -16 -25 -18 -27 -13 -7 5 16 4 21 -4 17 -8
-5 -8 0 -1 19 16 41 13 54 -11 48 -12 -4 -22 -17 -26 -34 -3 -16 -11 -33 -18
-39 -11 -9 -11 -3 -4 27 5 21 14 61 20 90 l12 52 86 -6 c47 -3 89 -11 94 -17
5 -8 10 -7 16 2 6 11 58 14 242 13 174 0 273 5 389 20 155 19 578 87 590 94 3
2 26 6 50 10 171 25 646 117 955 186 418 93 742 129 1120 124 213 -2 281 -7
375 -24z m724 -206 c109 -109 132 -137 167 -206 12 -24 31 -56 41 -71 11 -16
15 -28 9 -28 -6 0 -16 10 -22 23 -7 12 -35 54 -64 92 -28 39 -52 74 -53 78 -2
12 -43 66 -78 101 -17 17 -74 60 -127 96 -53 35 -97 68 -97 73 0 5 28 -7 62
-25 39 -21 98 -69 162 -133z m-2994 -281 c0 -2 -15 -4 -32 -4 -23 0 -29 3 -19
9 12 8 51 4 51 -5z m1570 0 c0 -2 -15 -4 -32 -4 -23 0 -29 3 -19 9 12 8 51 4
51 -5z m-1404 -42 c-4 -3 -14 2 -24 12 -16 18 -16 18 6 6 13 -6 21 -14 18 -18z
m1580 -3 c4 -8 1 -8 -14 0 -12 6 -24 16 -28 22 -4 8 -1 8 14 0 12 -6 24 -16
28 -22z m-3292 -24 c-4 -8 -10 -15 -15 -15 -4 0 -6 7 -3 15 4 8 10 15 15 15 4
0 6 -7 3 -15z m143 -27 c-3 -8 -6 -5 -6 6 -1 11 2 17 5 13 3 -3 4 -12 1 -19z
m3883 -3 c-7 -9 -15 -13 -17 -11 -7 7 7 26 19 26 6 0 6 -6 -2 -15z m750 -6 c0
-6 -4 -7 -10 -4 -5 3 -10 11 -10 16 0 6 5 7 10 4 6 -3 10 -11 10 -16z m-4869
-21 c-5 -13 -21 -32 -36 -42 -30 -20 -26 -9 15 41 29 35 34 35 21 1z m279 -3
c0 -8 -4 -15 -10 -15 -5 0 -7 7 -4 15 4 8 8 15 10 15 2 0 4 -7 4 -15z m4560
-3 c0 -5 -9 -17 -20 -27 -16 -14 -20 -15 -20 -4 0 16 19 39 32 39 4 0 8 -4 8
-8z m80 -42 c0 -5 -4 -10 -10 -10 -5 0 -10 5 -10 10 0 6 5 10 10 10 6 0 10 -4
10 -10z m-4938 -17 c-5 -10 -12 -32 -15 -49 -9 -47 -63 -158 -71 -145 -4 6 2
26 13 45 12 18 22 46 23 62 1 16 13 46 26 67 25 38 39 50 24 20z m4778 -18
c-7 -9 -23 -21 -34 -27 -15 -7 -12 -1 9 20 31 30 48 35 25 7z m-3060 -65 c0
-5 -2 -10 -4 -10 -3 0 -8 5 -11 10 -3 6 -1 10 4 10 6 0 11 -4 11 -10z m1609
-63 l-1 -32 -15 35 c-8 19 -22 44 -31 54 -14 17 -12 16 16 -3 25 -18 32 -29
31 -54z m-1629 10 c0 -5 -11 -2 -25 7 -13 9 -31 16 -40 16 -18 0 -20 17 -2 23
14 4 67 -32 67 -46z m1570 1 c0 -4 -17 0 -37 9 -50 23 -50 23 -34 33 14 8 71
-25 71 -42z m-1508 -16 l-5 -27 -13 30 c-20 46 -18 62 5 41 12 -11 16 -25 13
-44z m-46 -23 c13 -12 29 -38 36 -58 18 -53 13 -176 -11 -246 -19 -57 -19 -58
-13 -15 4 25 7 81 7 126 0 70 -3 86 -26 120 -21 32 -35 41 -73 50 -41 9 -48 8
-56 -6 -7 -14 -2 -19 25 -28 41 -12 47 -6 9 9 -15 5 -24 12 -21 15 11 11 62
-22 85 -56 22 -32 24 -42 19 -130 -8 -156 -78 -325 -228 -545 -66 -99 -250
-297 -256 -278 -2 5 -24 0 -51 -12 -26 -13 -77 -33 -115 -45 -37 -13 -66 -25
-63 -27 2 -2 37 8 77 22 96 35 123 41 89 22 -55 -32 -246 -87 -302 -87 -19 0
-20 4 -14 63 9 77 63 241 112 339 88 174 215 353 367 515 50 54 77 90 77 105
0 24 64 93 159 171 l43 36 51 -19 c27 -11 60 -29 73 -41z m1570 0 c13 -13 28
-39 34 -58 16 -59 11 -190 -10 -251 l-19 -55 7 45 c4 25 7 82 6 127 0 70 -4
87 -26 121 -20 29 -35 41 -60 45 -18 3 -40 8 -49 12 -11 4 -18 0 -21 -13 -4
-15 2 -22 28 -30 40 -12 46 -6 8 9 -15 5 -24 12 -21 15 12 12 72 -33 90 -66
28 -55 19 -180 -22 -300 -65 -187 -204 -408 -348 -553 -54 -53 -99 -93 -101
-87 -2 5 -25 -1 -50 -14 -26 -13 -78 -33 -115 -46 -38 -12 -66 -24 -64 -26 2
-3 43 9 92 26 48 17 89 29 91 27 15 -14 -254 -97 -315 -97 -23 0 -24 2 -18 59
12 115 86 310 174 456 67 112 145 227 173 255 3 3 20 23 39 45 19 22 63 70 98
108 37 39 66 80 69 97 6 29 99 126 173 182 l36 26 49 -18 c27 -11 59 -29 72
-41z m-1446 -59 c13 -45 13 -103 0 -95 -5 3 -10 24 -10 45 0 21 -6 45 -13 52
-12 12 -37 71 -37 87 0 17 51 -59 60 -89z m1545 46 c27 -47 48 -155 27 -142
-7 4 -12 23 -12 43 0 19 -9 47 -19 62 -20 28 -38 81 -28 81 4 0 18 -20 32 -44z
m1882 -98 c-3 -7 -5 -2 -5 12 0 14 2 19 5 13 2 -7 2 -19 0 -25z m-217 -53 c-7
-9 -15 -13 -18 -10 -3 2 1 11 8 20 7 9 15 13 18 10 3 -2 -1 -11 -8 -20z
m-1313 -22 c-3 -10 -5 -4 -5 12 0 17 2 24 5 18 2 -7 2 -21 0 -30z m1550 -10
c-3 -10 -5 -2 -5 17 0 19 2 27 5 18 2 -10 2 -26 0 -35z m-3120 5 c-3 -7 -5 -2
-5 12 0 14 2 19 5 13 2 -7 2 -19 0 -25z m2930 0 c-3 -7 -5 -2 -5 12 0 14 2 19
5 13 2 -7 2 -19 0 -25z m-4906 -35 c-12 -20 -14 -14 -5 12 4 9 9 14 11 11 3
-2 0 -13 -6 -23z m4817 15 c-2 -6 -10 -14 -16 -16 -7 -2 -10 2 -6 12 7 18 28
22 22 4z m-2846 -70 c-6 -6 -7 0 -4 19 5 21 7 23 10 9 2 -10 0 -22 -6 -28z
m1567 -2 c-9 -8 -10 -7 -5 7 3 10 7 24 7 30 1 7 3 4 6 -7 3 -10 -1 -23 -8 -30z
m1241 38 c0 -7 -90 -89 -129 -117 -14 -11 6 12 44 51 65 66 85 82 85 66z m277
-71 c-2 -16 -4 -3 -4 27 0 30 2 43 4 28 2 -16 2 -40 0 -55z m-5096 -24 c-34
-101 -152 -391 -157 -386 -4 3 127 355 163 440 27 64 24 34 -6 -54z m2005 -33
c-4 -31 -12 -59 -18 -62 -6 -4 -8 4 -4 22 3 16 8 46 12 67 10 57 17 36 10 -27z
m1564 -24 c-16 -93 -71 -254 -121 -353 -40 -80 -117 -209 -125 -209 -2 0 15
33 37 73 105 190 165 341 195 493 20 101 32 98 14 -4z m1575 28 c-4 -17 -9
-30 -11 -27 -2 2 -1 18 2 36 4 17 9 30 11 27 3 -2 2 -19 -2 -36z m-4734 -132
c-81 -150 -151 -354 -185 -538 -12 -68 -14 -71 -15 -30 -2 122 85 380 195 577
19 35 37 63 40 63 2 0 -13 -33 -35 -72z m1550 -35 c-11 -21 -20 -35 -21 -31 0
12 33 78 38 74 2 -2 -6 -21 -17 -43z m1570 -204 c-50 -133 -95 -247 -100 -252
-5 -5 1 22 14 60 58 174 165 447 172 440 2 -3 -37 -114 -86 -248z m-1680 -63
c-11 -25 -22 -46 -26 -46 -3 0 2 17 11 38 9 20 18 43 21 50 3 7 8 11 10 8 3
-2 -4 -25 -16 -50z m-46 -187 c-20 -114 -19 -201 4 -292 27 -103 51 -147 125
-222 34 -35 55 -60 45 -55 -16 9 -35 28 -104 103 -50 55 -84 150 -99 275 -7
55 7 193 25 250 18 56 20 30 4 -59z m-35 51 c-6 -11 -13 -20 -16 -20 -2 0 0 9
6 20 6 11 13 20 16 20 2 0 0 -9 -6 -20z m2032 -282 c-41 -123 -75 -241 -77
-263 -1 -22 -6 -63 -10 -92 -7 -48 -6 -51 12 -47 14 4 22 20 31 61 14 69 9 82
-7 17 -7 -25 -14 -44 -17 -41 -12 11 97 360 156 502 l34 79 26 -129 c42 -207
90 -336 167 -443 l33 -47 -117 -6 c-174 -9 -253 -27 -312 -71 -37 -28 -51 -23
-46 15 l5 32 -11 -27 c-6 -16 -15 -28 -20 -28 -12 0 -11 12 1 44 7 20 6 24 -5
19 -8 -3 -15 0 -15 7 0 39 49 209 83 285 21 50 64 146 94 214 53 122 62 141
66 141 2 0 -31 -100 -71 -222z m241 -119 c13 -36 34 -84 46 -107 29 -56 26
-66 -4 -17 -52 84 -136 349 -135 425 1 14 16 -33 34 -105 19 -71 45 -160 59
-196z m-3023 222 c0 -10 -17 -34 -39 -53 -48 -44 -117 -62 -234 -63 -101 0
-118 11 -116 74 1 20 3 27 6 16 2 -11 6 -30 9 -42 5 -26 24 -31 24 -8 0 8 4
15 10 15 5 0 7 -7 4 -15 -7 -18 -6 -18 76 -1 103 22 148 36 162 49 13 12 77
45 91 46 4 1 7 -7 7 -18z m1570 4 c0 -8 -14 -30 -31 -49 -37 -43 -106 -65
-222 -72 -108 -7 -131 5 -134 66 -1 42 0 40 13 -17 5 -27 23 -31 25 -5 1 16 2
16 6 0 5 -22 11 -22 93 -2 36 8 74 17 85 18 21 3 67 24 75 36 7 10 63 38 78
39 6 1 12 -6 12 -14z m-2373 -57 c-3 -7 -5 -2 -5 12 0 14 2 19 5 13 2 -7 2
-19 0 -25z m-37 2 c0 -16 -7 -20 -33 -20 -19 0 -70 -2 -113 -5 l-79 -5 105 24
c58 13 108 24 113 25 4 0 7 -8 7 -19z m3530 -34 c0 -7 -9 -25 -20 -38 -11 -14
-21 -41 -24 -59 -3 -29 -41 -109 -51 -109 -5 0 31 113 42 135 6 11 11 24 11
28 0 4 6 21 13 37 13 28 29 31 29 6z m-3526 -55 c4 -5 0 -11 -6 -14 -19 -6
-49 4 -42 14 7 12 41 12 48 0z m676 -30 c0 -22 -133 -46 -191 -34 -52 10 -33
26 25 19 36 -4 66 -1 92 8 45 17 74 20 74 7z m1570 1 c0 -20 -139 -45 -192
-35 -51 10 -31 26 25 20 31 -4 72 0 102 8 61 17 65 17 65 7z m1230 -116 c0 -2
-17 -24 -37 -48 -20 -23 -33 -35 -30 -25 4 10 7 23 7 27 0 11 41 50 52 50 4 0
8 -2 8 -4z m788 -24 c2 -12 13 -27 25 -34 25 -13 37 -27 37 -46 0 -20 -77 59
-85 87 -5 17 -4 22 6 19 8 -3 15 -14 17 -26z m-1108 -16 c0 -3 -4 -8 -10 -11
-5 -3 -10 -1 -10 4 0 6 5 11 10 11 6 0 10 -2 10 -4z m27 -68 c-3 -7 -5 -2 -5
12 0 14 2 19 5 13 2 -7 2 -19 0 -25z m157 -3 c-4 -8 -11 -15 -16 -15 -6 0 -5
6 2 15 7 8 14 15 16 15 2 0 1 -7 -2 -15z m606 -15 c6 -11 8 -20 6 -20 -3 0
-10 9 -16 20 -6 11 -8 20 -6 20 3 0 10 -9 16 -20z m-3705 -30 c3 -6 -1 -7 -9
-4 -18 7 -21 14 -7 14 6 0 13 -4 16 -10z m1630 -38 c-3 -3 -11 0 -18 7 -9 10
-8 11 6 5 10 -3 15 -9 12 -12z m-1963 -2 c-12 -5 -73 -19 -135 -30 -162 -30
-167 -30 -167 -22 0 4 66 19 148 33 161 29 188 32 154 19z m-319 -57 c-7 -2
-21 -2 -30 0 -10 3 -4 5 12 5 17 0 24 -2 18 -5z m746 -27 c26 -14 68 -47 93
-74 58 -65 79 -129 76 -236 l-1 -81 -7 95 c-9 151 -58 233 -172 290 -34 16
-56 30 -49 30 6 0 33 -11 60 -24z m3093 -10 c5 -24 -14 -61 -25 -49 -4 3 -7
-3 -7 -15 0 -11 -4 -24 -10 -27 -16 -10 -11 41 8 79 20 42 28 45 34 12z
m-6882 4 c103 -13 312 -51 307 -56 -2 -2 -57 6 -123 17 -164 30 -386 31 -459
1 -67 -26 -90 -59 -90 -125 1 -68 30 -126 113 -224 65 -77 65 -77 16 -34 -101
89 -144 162 -144 244 0 104 62 161 195 177 89 11 93 11 185 0z m2920 -10 c-20
-13 -43 -13 -35 0 3 6 16 10 28 10 18 0 19 -2 7 -10z m-2734 -74 c294 -59 650
-207 770 -320 132 -125 244 -415 244 -632 0 -24 -4 -44 -9 -44 -26 0 -204 70
-341 135 -85 40 -166 76 -180 80 -47 14 -282 136 -414 215 -353 210 -557 424
-487 511 19 23 24 24 143 23 127 -1 213 -14 386 -60 132 -35 296 -96 282 -104
-8 -5 -7 -9 5 -13 9 -4 13 -3 10 3 -3 6 -2 10 3 10 15 0 182 -79 182 -86 0 -3
-8 -4 -17 0 -15 5 -15 4 1 -7 98 -64 138 -87 126 -71 -14 17 -14 18 2 5 10 -7
15 -18 12 -23 -3 -5 3 -19 14 -31 10 -12 32 -43 47 -69 28 -50 38 -61 29 -30
-3 9 6 -2 21 -25 14 -24 28 -43 30 -43 2 0 -2 18 -10 39 -15 44 -65 124 -73
116 -3 -2 1 -11 8 -20 7 -9 10 -18 7 -21 -8 -9 -28 33 -22 48 14 39 -127 133
-349 233 -182 82 -290 119 -421 146 -110 22 -320 36 -380 25 -45 -9 -85 -46
-85 -81 0 -143 328 -416 772 -642 46 -23 80 -42 76 -42 -31 -3 -345 170 -508
280 -199 133 -316 249 -356 355 -16 42 -16 51 -3 88 15 44 39 61 111 76 65 14
239 3 374 -24z m6568 11 c-3 -8 -12 -18 -20 -21 -11 -4 -10 0 3 18 20 26 27
28 17 3z m1036 13 c0 -5 -7 -7 -15 -4 -8 4 -15 8 -15 10 0 2 7 4 15 4 8 0 15
-4 15 -10z m-7065 -24 c19 -8 35 -17 35 -20 0 -5 -71 22 -79 30 -9 8 11 4 44
-10z m-398 -2 c-3 -3 -12 -4 -19 -1 -8 3 -5 6 6 6 11 1 17 -2 13 -5z m6773 -1
c0 -5 -97 -49 -127 -58 -18 -5 -23 -2 -23 13 0 20 42 40 48 23 2 -5 18 -1 36
9 31 15 66 22 66 13z m-6619 -32 c129 -32 409 -146 426 -174 3 -4 -21 5 -54
21 -82 41 -185 79 -363 134 -176 54 -180 61 -9 19z m5784 20 c3 -5 1 -12 -5
-16 -5 -3 -10 1 -10 9 0 18 6 21 15 7z m-5455 -26 c17 -9 30 -14 30 -11 0 5
120 -56 174 -88 50 -31 102 -80 134 -129 15 -22 35 -51 44 -65 9 -14 14 -30
11 -35 -3 -6 -2 -7 4 -4 6 4 15 -5 22 -20 6 -14 14 -23 17 -20 3 3 -2 19 -11
36 -23 46 -11 38 18 -11 128 -220 166 -374 158 -635 -2 -62 -18 -53 -24 15
-26 257 -54 365 -135 518 -117 219 -190 294 -410 420 -73 42 -95 61 -32 29z
m5922 -15 c-4 -28 -22 -53 -22 -31 0 12 18 61 23 61 2 0 2 -14 -1 -30z m1098
-56 c31 -63 34 -78 36 -164 l2 -95 -8 91 c-8 93 -29 157 -71 216 -15 20 -17
29 -8 26 8 -2 30 -36 49 -74z m-3151 17 c-2 -6 -12 4 -22 22 l-18 32 21 -21
c13 -12 21 -27 19 -33z m-41 14 c-8 -8 -48 8 -42 16 3 5 14 4 25 -2 12 -6 19
-12 17 -14z m0 -23 c13 -9 28 -26 33 -39 10 -28 10 -117 0 -153 -5 -16 -7 0
-7 45 1 71 -16 115 -46 122 -38 8 -51 7 -56 -6 -3 -10 2 -11 18 -6 15 5 20 4
16 -4 -4 -7 -1 -9 8 -5 11 4 19 -3 26 -21 30 -78 -10 -224 -101 -371 -69 -112
-168 -219 -210 -228 -17 -3 -28 -10 -25 -15 10 -16 -161 -68 -189 -57 -28 10
28 193 92 301 62 104 104 163 177 245 42 46 76 90 76 96 0 6 27 37 60 68 64
61 74 63 128 28z m2735 21 c-7 -2 -19 -2 -25 0 -7 3 -2 5 12 5 14 0 19 -2 13
-5z m-2643 -65 c0 -18 -27 11 -33 35 -6 22 -6 22 14 -2 10 -13 19 -28 19 -33z
m999 23 c-6 -16 -20 -37 -32 -48 l-21 -18 15 25 c9 14 21 35 28 48 16 31 22
28 10 -7z m1301 20 c0 -5 -7 -12 -16 -15 -8 -3 -12 -11 -8 -17 4 -7 -10 -26
-32 -46 -27 -25 -31 -30 -12 -19 l27 16 -32 -67 c-18 -38 -78 -160 -134 -273
-138 -280 -183 -391 -186 -460 l-2 -35 -58 -5 c-32 -3 -61 -2 -64 3 -8 13 18
77 32 77 7 0 28 33 46 73 19 39 73 149 120 242 95 186 167 348 195 437 9 31
24 59 33 62 9 4 27 13 41 21 28 17 50 19 50 6z m-326 -25 c-3 -9 -10 -16 -15
-16 -6 0 -5 9 1 21 13 24 24 20 14 -5z m-3069 -2 c17 -8 22 -12 12 -9 -10 3
-32 5 -48 5 -16 0 -29 5 -29 10 0 14 30 12 65 -6z m3799 -13 c37 -10 73 -24
79 -30 7 -7 -7 -5 -33 4 -25 9 -71 19 -102 22 -32 3 -58 10 -58 14 0 14 40 10
114 -10z m-3785 -27 c20 -14 22 -22 17 -57 -12 -74 -62 -163 -121 -214 -30
-26 -55 -52 -55 -58 0 -12 -59 -50 -66 -43 -5 5 36 105 85 210 17 36 31 77 31
91 0 13 5 38 11 56 9 26 16 31 43 31 17 0 42 -7 55 -16z m1091 -20 c0 -8 -4
-14 -10 -14 -5 0 -10 9 -10 21 0 11 5 17 10 14 6 -3 10 -13 10 -21z m2720 1
c53 -18 97 -55 106 -91 9 -35 -1 -119 -21 -177 -37 -110 -108 -191 -238 -274
-40 -25 -74 -50 -75 -55 -8 -20 -252 -125 -252 -108 0 4 34 79 76 166 42 88
99 209 126 269 27 61 63 135 80 165 26 47 34 71 37 124 1 12 104 -1 161 -19z
m-1776 -52 c-28 -63 -51 -95 -39 -53 8 25 54 110 60 110 2 0 -7 -26 -21 -57z
m-4749 38 c3 -5 2 -12 -3 -15 -5 -3 -9 1 -9 9 0 17 3 19 12 6z m5513 -110 c11
-51 17 -90 13 -85 -4 5 -16 47 -25 93 -10 45 -20 90 -22 100 -5 14 -4 14 4 1
6 -8 19 -57 30 -109z m-5566 82 c55 -28 182 -148 193 -183 4 -11 10 -18 15
-15 5 3 12 0 16 -6 4 -8 3 -9 -4 -5 -23 14 -12 -11 28 -64 22 -29 42 -61 45
-72 4 -10 10 -18 16 -18 5 0 0 16 -11 35 -11 20 -20 41 -20 48 0 7 -20 45 -44
85 -25 39 -47 80 -51 91 -3 12 -10 20 -14 18 -13 -4 -78 59 -78 76 0 13 3 14
14 5 7 -6 11 -13 8 -16 -8 -8 16 -32 27 -26 21 13 110 -107 173 -235 53 -108
73 -175 95 -326 12 -80 19 -107 20 -80 4 61 1 106 -12 153 -17 65 -2 61 17 -5
24 -79 34 -278 14 -271 -8 3 -38 13 -66 22 l-53 18 0 79 c0 101 -22 209 -66
324 -67 173 -152 290 -257 351 -34 20 -64 38 -66 40 -11 10 12 2 61 -23z
m4382 -72 c-15 -34 -29 -60 -30 -58 -2 2 8 31 23 65 14 34 28 60 31 58 2 -3
-9 -32 -24 -65z m-4427 -7 c25 -14 42 -28 40 -30 -3 -3 -26 9 -53 25 -58 38
-48 41 13 5z m6002 -11 c-24 -64 -92 -214 -95 -210 -2 2 11 39 30 83 19 43 41
96 50 117 17 42 31 51 15 10z m-5729 -8 c14 -19 14 -19 -2 -6 -10 7 -18 18
-18 24 0 6 1 8 3 6 1 -2 9 -13 17 -24z m2837 3 c-3 -8 -6 -5 -6 6 -1 11 2 17
5 13 3 -3 4 -12 1 -19z m1668 -48 c-36 -53 -45 -44 -9 9 15 23 29 39 32 36 3
-2 -8 -23 -23 -45z m256 23 c-12 -20 -14 -14 -5 12 4 9 9 14 11 11 3 -2 0 -13
-6 -23z m1986 -60 c-3 -10 -5 -4 -5 12 0 17 2 24 5 18 2 -7 2 -21 0 -30z
m-6481 -15 c8 -16 13 -32 10 -35 -2 -3 -14 14 -26 37 -12 23 -17 39 -11 35 6
-3 18 -20 27 -37z m-182 -14 c14 -26 26 -49 26 -53 0 -9 -45 61 -53 82 -11 31
1 18 27 -29z m1531 -25 c-5 -28 -14 -37 -46 -51 -21 -9 -39 -14 -39 -12 0 9
83 104 87 100 2 -2 1 -19 -2 -37z m3459 -57 c9 -50 16 -125 16 -165 0 -40 4
-77 10 -83 5 -5 11 -57 14 -114 2 -58 7 -117 11 -131 4 -15 2 -30 -4 -33 -15
-10 -319 -41 -327 -33 -3 3 14 59 39 124 54 140 219 534 223 530 1 -1 9 -44
18 -95z m680 41 c-14 -32 -42 -95 -62 -141 -20 -46 -38 -79 -40 -74 -1 5 14
44 34 88 20 43 47 103 60 132 12 28 25 52 28 52 3 0 -6 -26 -20 -57z m-3785
-122 c-29 -66 -54 -119 -56 -117 -3 2 19 59 48 125 28 67 53 120 55 118 3 -2
-19 -59 -47 -126z m774 0 c-50 -147 -55 -247 -18 -367 4 -11 -1 -6 -11 11 -25
44 -31 184 -10 265 18 70 66 203 72 198 1 -2 -13 -50 -33 -107z m1927 64 c-5
-13 -18 -41 -28 -62 -27 -54 -92 -219 -110 -278 -8 -27 -17 -93 -21 -145 l-6
-95 -40 -7 c-177 -30 -626 -79 -1235 -133 -91 -8 -253 -19 -360 -25 -107 -5
-226 -12 -265 -14 l-70 -4 55 17 c80 26 120 53 163 111 35 47 37 51 15 45 -22
-8 -23 -7 -5 13 24 26 3 41 -23 17 -11 -10 -26 -15 -33 -12 -8 3 -20 0 -26 -6
-6 -6 -13 -8 -17 -5 -11 11 36 48 61 48 18 0 23 4 19 15 -4 8 -13 15 -21 15
-8 0 -11 5 -8 10 8 13 -1 13 -26 0 -24 -14 -49 -1 -25 12 21 12 11 29 -12 22
-12 -4 -10 1 7 15 30 27 36 27 50 -8 19 -44 89 -111 140 -134 63 -28 170 -33
249 -13 34 9 67 14 72 11 5 -3 29 5 53 19 24 14 57 27 74 29 38 4 62 20 130
83 51 49 190 204 228 257 l20 27 -4 -86 c-2 -48 2 -113 9 -146 33 -153 188
-238 358 -194 72 18 165 63 157 75 -3 5 17 26 45 46 69 50 186 179 266 291 66
94 91 122 57 63 -61 -104 -243 -308 -326 -366 -20 -14 -35 -28 -33 -31 9 -8
120 85 186 154 84 89 180 217 237 316 47 81 59 96 43 53z m-16 -94 c-26 -61
-48 -110 -50 -108 -3 3 29 86 83 215 3 7 7 11 9 9 3 -2 -17 -54 -42 -116z
m-4350 -6 c8 -32 13 -61 11 -64 -3 -2 -6 2 -8 10 -3 8 -12 41 -22 74 -10 33
-20 67 -22 75 -2 8 2 4 10 -10 9 -14 22 -52 31 -85z m2412 34 c-39 -93 -55
-267 -31 -330 8 -21 -81 -77 -135 -84 l-45 -6 40 22 c64 34 116 89 84 89 -5 0
-7 -5 -3 -12 5 -8 2 -9 -9 -5 -10 4 -16 2 -14 -5 1 -6 -18 -22 -42 -35 -55
-30 -57 -28 -110 92 -41 91 -43 110 -11 100 40 -13 189 89 250 170 18 25 35
43 37 41 2 -1 -3 -18 -11 -37z m-4136 -4 c13 -14 21 -25 18 -25 -2 0 -15 11
-28 25 -13 14 -21 25 -18 25 2 0 15 -11 28 -25z m55 -45 c10 -11 16 -20 13
-20 -3 0 -13 9 -23 20 -10 11 -16 20 -13 20 3 0 13 -9 23 -20z m5045 -30 c-6
-11 -13 -20 -16 -20 -2 0 0 9 6 20 6 11 13 20 16 20 2 0 0 -9 -6 -20z m-4940
-47 c0 -7 -61 31 -73 46 -7 8 7 2 31 -14 23 -15 42 -30 42 -32z m1617 25 c-3
-8 -6 -5 -6 6 -1 11 2 17 5 13 3 -3 4 -12 1 -19z m-1509 -90 c37 -23 72 -46
77 -51 12 -12 -77 37 -125 70 -58 39 -24 26 48 -19z m7026 -25 c-35 -77 -45
-96 -50 -90 -6 5 63 147 71 147 2 0 -8 -26 -21 -57z m-4017 25 c-3 -8 -6 -5
-6 6 -1 11 2 17 5 13 3 -3 4 -12 1 -19z m-1497 -178 c0 -162 -16 -126 -23 50
-5 133 -4 142 9 105 8 -25 14 -83 14 -155z m4489 128 c-39 -97 -79 -213 -79
-230 0 -11 -8 -18 -20 -18 -28 0 -21 24 52 177 60 127 84 162 47 71z m-1649
34 c0 -17 -46 -50 -85 -61 -50 -14 -142 -14 -150 -1 -6 10 7 14 34 10 23 -3
114 22 151 41 38 21 50 23 50 11z m-1630 -12 c-8 -5 -19 -10 -25 -10 -5 0 -3
5 5 10 8 5 20 10 25 10 6 0 3 -5 -5 -10z m-348 -76 c-59 -89 -112 -181 -112
-193 0 -7 -9 -29 -20 -51 -24 -47 -24 -50 -5 -50 16 0 16 1 20 37 3 30 139
263 181 312 2 2 13 -4 24 -14 16 -15 30 -17 77 -11 70 7 152 22 174 31 14 5
17 -7 23 -85 6 -75 13 -104 41 -163 30 -62 35 -68 36 -42 l1 30 12 -34 c15
-43 31 -25 22 24 -4 20 -2 36 4 40 6 4 8 15 5 25 -3 10 -1 21 4 25 14 8 23
-32 18 -78 -3 -27 0 -37 9 -37 8 0 14 7 14 16 0 14 2 15 17 3 15 -13 16 -11
10 11 -8 32 8 64 19 37 3 -9 4 -31 2 -47 -5 -34 7 -41 17 -10 3 11 10 20 15
20 5 0 4 -11 -2 -25 -6 -14 -8 -28 -5 -31 11 -11 37 17 37 40 0 30 14 48 33
41 14 -6 14 -10 -3 -40 -15 -28 -16 -34 -5 -39 8 -3 19 3 24 12 6 10 11 12 11
5 0 -25 16 -13 25 19 12 39 35 50 28 13 -6 -31 10 -33 26 -2 11 21 11 20 6 -7
-3 -15 -8 -42 -11 -60 -4 -28 -3 -28 5 -6 5 14 14 45 21 70 12 46 121 282 127
276 2 -2 -5 -27 -17 -55 -31 -78 -57 -161 -64 -204 -4 -21 -10 -45 -13 -53 -3
-8 1 -14 10 -14 8 0 17 9 20 20 3 13 1 18 -6 13 -7 -4 -8 0 -4 11 4 10 7 22 7
27 0 6 5 7 12 3 7 -4 8 -3 4 5 -4 6 5 46 20 87 l27 75 22 -63 c64 -182 145
-274 269 -304 48 -12 40 -12 -119 -15 -379 -7 -716 7 -1025 41 -244 28 -270
32 -276 41 -9 16 85 185 161 288 81 110 112 133 47 35z m981 12 c4 4 7 -2 7
-14 0 -23 -23 -29 -48 -13 -10 6 -11 13 -1 35 12 27 13 27 24 6 6 -11 14 -17
18 -14z m3577 -2 c-18 -21 -24 -10 -8 15 7 12 14 17 16 11 2 -6 -2 -17 -8 -26z
m-4639 -17 c-13 -12 -20 -15 -16 -7 14 26 28 41 33 35 3 -3 -5 -16 -17 -28z
m658 -24 c-1 -44 -3 -52 -8 -33 -8 24 -4 90 5 90 2 0 4 -26 3 -57z m251 2
c-11 -22 -20 -45 -20 -52 0 -6 -4 -14 -9 -18 -14 -8 13 78 32 103 18 24 17 6
-3 -33z m2706 10 c-9 -13 -16 -30 -16 -38 0 -7 -7 -22 -15 -33 -13 -18 -14
-17 -6 11 13 46 33 85 44 85 5 0 2 -11 -7 -25z m-1671 -4 c-16 -14 -55 -23
-55 -12 0 9 20 17 50 20 8 1 10 -2 5 -8z m2661 -43 c-19 -27 -20 -22 -4 23 8
23 13 28 16 17 2 -10 -4 -28 -12 -40z m-6104 -234 c76 -32 135 -60 133 -62
-12 -12 -644 279 -700 322 -11 9 81 -33 205 -93 124 -60 287 -135 362 -167z
m3373 266 c8 -13 -25 -13 -45 0 -12 8 -9 10 12 10 15 0 30 -4 33 -10z m-1902
-17 c-4 -10 -14 -29 -22 -42 -9 -14 -16 -30 -16 -37 0 -7 -13 -22 -29 -35
l-29 -23 18 27 c9 15 21 27 24 27 4 0 8 6 8 14 0 13 41 86 49 86 2 0 0 -8 -3
-17z m4697 -14 c0 -5 -7 -9 -15 -9 -9 0 -12 6 -9 15 6 15 24 11 24 -6z m-5553
-76 c-3 -10 -5 -2 -5 17 0 19 2 27 5 18 2 -10 2 -26 0 -35z m5383 31 c0 -8 -5
-12 -10 -9 -6 4 -8 11 -5 16 9 14 15 11 15 -7z m-3843 -16 c-3 -8 -6 -5 -6 6
-1 11 2 17 5 13 3 -3 4 -12 1 -19z m2833 1 c0 -21 -36 -89 -47 -89 -20 0 -15
34 7 60 11 13 20 29 20 37 0 8 5 11 10 8 6 -3 10 -10 10 -16z m-2710 -16 c0
-19 -3 -24 -10 -17 -6 6 -8 18 -4 27 9 24 14 21 14 -10z m2795 -3 c-10 -11
-20 -18 -23 -15 -3 3 3 14 13 25 10 11 20 18 23 15 3 -3 -3 -14 -13 -25z m477
8 c-7 -7 -12 -8 -12 -2 0 14 12 26 19 19 2 -3 -1 -11 -7 -17z m-3162 9 c0 -2
-12 -14 -27 -28 -24 -22 -24 -13 0 19 8 11 27 17 27 9z m610 -7 c0 -5 -4 -10
-9 -10 -6 0 -13 5 -16 10 -3 6 1 10 9 10 9 0 16 -4 16 -10z m2520 -4 c0 -3 -4
-8 -10 -11 -5 -3 -10 -1 -10 4 0 6 5 11 10 11 6 0 10 -2 10 -4z m-2830 -175
c19 -13 54 -32 79 -42 25 -10 39 -18 31 -18 -24 -1 -92 34 -129 65 -34 28
-111 138 -111 157 0 5 22 -24 48 -64 27 -41 64 -85 82 -98z m266 154 c-11 -8
-29 -15 -40 -14 -15 0 -11 4 14 14 45 17 49 17 26 0z m2084 -30 c0 -8 -4 -15
-10 -15 -5 0 -10 7 -10 15 0 8 5 15 10 15 6 0 10 -7 10 -15z m-144 -21 c-4 -9
-9 -15 -11 -12 -3 3 -3 13 1 22 4 9 9 15 11 12 3 -3 3 -13 -1 -22z m-4691
-174 c8 -13 -5 -13 -25 0 -13 8 -13 10 2 10 9 0 20 -4 23 -10z m1690 -341 c72
-6 279 -15 460 -19 l330 -8 -345 3 c-315 4 -715 26 -729 42 -6 6 35 3 284 -18z
m6551 -631 l29 -33 -32 29 c-31 28 -38 36 -30 36 2 0 16 -15 33 -32z m349
-219 c10 -30 0 -33 -13 -4 -6 14 -7 25 -2 25 5 0 12 -9 15 -21z"/>
<path d="M8855 4840 c-4 -12 -5 -24 -2 -27 3 -2 8 5 12 17 4 12 5 24 2 27 -3
2 -8 -5 -12 -17z"/>
<path d="M1848 4473 c6 -2 18 -2 25 0 6 3 1 5 -13 5 -14 0 -19 -2 -12 -5z"/>
<path d="M1958 4453 c7 -3 16 -2 19 1 4 3 -2 6 -13 5 -11 0 -14 -3 -6 -6z"/>
<path d="M2295 4356 c17 -7 41 -16 55 -20 20 -5 19 -3 -5 8 -16 7 -41 16 -55
20 -20 5 -19 3 5 -8z"/>
<path d="M2500 4270 c19 -11 40 -19 45 -19 6 0 -6 8 -25 19 -19 11 -39 19 -45
19 -5 0 6 -8 25 -19z"/>
<path d="M2830 4236 c0 -2 8 -10 18 -17 15 -13 16 -12 3 4 -13 16 -21 21 -21
13z"/>
<path d="M4235 7569 c-4 -6 -5 -12 -2 -15 2 -3 7 2 10 11 7 17 1 20 -8 4z"/>
<path d="M10071 5605 c1 -40 1 -40 11 -12 7 21 7 32 -1 40 -8 8 -11 0 -10 -28z"/>
<path d="M3036 3093 c-6 -14 -5 -15 5 -6 7 7 10 15 7 18 -3 3 -9 -2 -12 -12z"/>
<path d="M9548 3073 c7 -3 16 -2 19 1 4 3 -2 6 -13 5 -11 0 -14 -3 -6 -6z"/>
<path d="M8169 2543 c-23 -39 -145 -210 -162 -228 -13 -13 -9 -5 43 80 42 69
90 155 90 161 0 2 -4 4 -10 4 -5 0 -10 -5 -10 -11 0 -5 -39 -75 -87 -154 -49
-78 -98 -160 -111 -181 l-22 -39 2 48 c3 39 0 47 -14 47 -13 0 -18 8 -18 26 0
14 -4 23 -10 19 -5 -3 -16 -3 -22 1 -7 5 -22 8 -33 8 -11 0 -26 -3 -33 -8 -6
-4 -12 -3 -12 2 0 6 -6 12 -14 15 -8 3 -25 -12 -45 -41 -58 -89 -72 -97 -31
-19 22 43 40 85 40 94 0 19 -13 9 -16 -11 -2 -17 -55 -108 -60 -104 -1 2 1 21
6 43 5 22 10 59 10 83 0 60 -38 131 -62 115 -5 -2 -16 1 -25 9 -20 17 -19 17
-37 -7 -9 -12 -15 -15 -16 -7 0 7 -5 10 -12 6 -8 -5 -9 0 -5 15 4 18 2 21 -11
16 -9 -4 -46 -9 -82 -11 -59 -3 -61 -3 -25 6 58 15 95 31 95 42 0 7 -4 7 -12
1 -19 -16 -101 -31 -225 -43 -95 -10 -117 -9 -142 3 -25 13 -31 13 -35 1 -3
-8 -26 -19 -51 -26 -32 -9 -45 -17 -45 -30 0 -10 -7 -18 -15 -18 -8 0 -15 -7
-15 -15 0 -8 -6 -15 -13 -15 -8 0 -35 -50 -62 -110 -26 -61 -50 -109 -52 -107
-2 2 2 27 8 56 20 93 -15 191 -86 245 -97 75 -272 75 -369 1 l-34 -26 -27 26
c-16 14 -40 25 -56 25 -37 0 -59 9 -59 26 0 11 -8 11 -42 -3 -24 -9 -47 -20
-53 -24 -5 -4 -26 -10 -46 -14 -27 -5 -53 -24 -101 -73 -108 -111 -239 -294
-242 -338 0 -12 -4 -20 -8 -18 -14 9 -51 -114 -56 -187 -5 -90 7 -136 51 -186
42 -48 99 -73 168 -73 51 0 172 32 193 51 19 17 28 9 23 -18 -5 -27 -4 -27 10
-8 15 19 15 19 9 -9 -6 -26 -5 -28 8 -17 9 8 16 21 16 30 0 9 9 27 20 41 19
25 20 25 20 3 0 -12 -4 -24 -9 -27 -5 -3 -11 -14 -14 -25 -8 -30 33 -22 45 9
9 23 11 23 17 6 7 -18 8 -18 14 -2 4 9 11 14 17 11 5 -3 10 0 10 6 0 16 72
171 77 166 1 -2 -11 -40 -27 -85 -16 -45 -28 -82 -25 -82 2 0 0 -11 -5 -25 -6
-15 -6 -26 0 -30 6 -4 10 2 11 12 0 10 10 49 22 87 l22 70 29 -74 c53 -134
139 -199 250 -187 59 6 125 42 151 81 14 21 26 24 55 16 3 -1 46 -1 95 0 196
2 364 34 422 80 25 20 28 20 32 5 2 -15 5 -15 12 -4 7 11 9 11 9 -3 0 -10 5
-18 10 -18 6 0 10 8 10 19 0 10 7 32 16 47 l16 29 -6 -42 c-5 -37 -4 -42 14
-40 12 1 20 8 20 19 0 9 5 20 10 23 6 3 10 -2 10 -12 0 -15 2 -15 9 -4 7 11
11 6 14 -20 3 -25 4 -21 5 19 2 38 6 52 16 52 10 0 16 -14 19 -42 l4 -43 1 46
c2 53 23 79 46 60 11 -9 15 -9 19 1 3 7 6 -6 6 -28 1 -37 40 -149 41 -116 0
19 20 14 21 -5 1 -10 5 1 11 25 5 24 14 40 19 36 6 -3 7 -19 4 -36 -6 -25 -4
-29 12 -26 10 2 21 7 25 13 4 5 15 1 27 -9 21 -19 21 -19 21 4 0 18 4 21 24
16 21 -5 23 -3 19 15 -5 16 -2 20 13 18 29 -5 107 77 144 151 18 36 52 97 77
137 25 41 41 77 37 84 -4 7 -3 9 3 6 9 -6 180 275 188 307 1 6 6 26 10 44 4
18 12 35 16 38 12 7 -12 30 -34 32 -42 4 -47 6 -47 14 0 5 -12 -4 -26 -19 -15
-17 -24 -21 -20 -11 2 9 0 18 -6 20 -7 3 -5 14 7 31 9 15 15 27 12 27 -3 0
-15 -17 -28 -37z m-1481 -27 c33 -17 76 -62 91 -96 10 -21 9 -22 -1 -6 -32 48
-63 78 -97 96 -20 10 -32 19 -28 20 4 0 20 -6 35 -14z m792 -26 c0 -11 -4 -20
-9 -20 -6 0 -9 9 -8 20 1 11 5 20 9 20 4 0 8 -9 8 -20z m790 13 c-1 -12 -30
-48 -30 -37 -1 5 -7 -2 -15 -16 -12 -21 -14 -22 -15 -6 0 11 10 30 22 43 21
23 38 30 38 16z m22 -25 c-7 -7 -12 -8 -12 -2 0 14 12 26 19 19 2 -3 -1 -11
-7 -17z m-889 -5 c-7 -2 -21 -2 -30 0 -10 3 -4 5 12 5 17 0 24 -2 18 -5z m757
-3 c0 -5 -5 -10 -11 -10 -5 0 -7 5 -4 10 3 6 8 10 11 10 2 0 4 -4 4 -10z
m-1876 -31 c25 -20 28 -20 51 -5 28 18 45 21 45 6 0 -5 -11 -12 -25 -16 -14
-4 -25 -13 -25 -23 0 -10 -27 -77 -60 -149 -34 -73 -58 -138 -54 -144 5 -7 3
-8 -6 -3 -10 6 -12 4 -7 -9 4 -9 3 -15 -2 -12 -9 6 -101 -199 -101 -223 0 -14
-60 -41 -87 -41 -12 1 -8 6 12 15 l30 15 -30 -4 c-28 -4 -29 -3 -10 11 20 16
20 16 0 8 -62 -23 -113 -35 -149 -34 l-41 1 55 13 c59 14 154 58 145 67 -3 3
-27 -6 -53 -19 -27 -13 -65 -26 -87 -30 l-38 -6 6 48 c10 72 76 199 154 294
37 46 78 98 90 116 27 41 91 94 121 102 17 4 22 11 19 24 -7 25 14 24 47 -2z
m1182 -26 c-10 -10 -19 5 -10 18 6 11 8 11 12 0 2 -7 1 -15 -2 -18z m664 6
c-7 -11 -14 -18 -17 -15 -3 3 0 12 7 21 18 21 23 19 10 -6z m-30 -44 c-7 -9
-15 -13 -17 -11 -7 7 7 26 19 26 6 0 6 -6 -2 -15z m-1537 -12 c-7 -2 -19 -2
-25 0 -7 3 -2 5 12 5 14 0 19 -2 13 -5z m34 -39 c3 -9 -2 -41 -11 -71 -14 -42
-32 -69 -83 -121 -37 -37 -68 -61 -70 -55 -2 6 14 51 35 99 22 49 43 106 46
127 6 34 9 37 42 37 23 0 37 -6 41 -16z m210 -26 c-3 -7 -5 -2 -5 12 0 14 2
19 5 13 2 -7 2 -19 0 -25z m607 5 c-3 -16 -17 -68 -29 -118 -28 -109 -56 -251
-59 -308 -2 -32 -7 -43 -22 -46 -15 -3 -16 -1 -6 12 17 20 -13 27 -97 22 -36
-2 -57 -2 -46 1 75 19 154 48 150 54 -3 5 -18 2 -33 -5 -53 -27 -382 -75 -382
-56 0 17 39 101 47 102 151 10 212 26 256 67 20 19 24 28 15 34 -10 6 -10 8 0
8 6 0 12 4 12 10 0 5 -6 7 -14 4 -8 -3 -17 -1 -21 5 -3 6 4 15 15 19 19 7 20
10 9 23 -18 18 -18 41 1 57 13 11 12 12 -5 4 -11 -5 -42 -12 -70 -15 l-50 -6
45 17 c57 21 70 30 70 45 0 9 -2 9 -8 0 -7 -11 -152 -55 -159 -49 -2 1 7 28
20 59 l22 57 95 0 c52 1 124 7 160 14 94 19 91 20 84 -11z m-161 10 c-7 -2
-19 -2 -25 0 -7 3 -2 5 12 5 14 0 19 -2 13 -5z m891 -136 c-14 -26 -28 -47
-30 -47 -3 0 7 23 22 50 15 28 29 49 31 47 2 -2 -8 -25 -23 -50z m-987 -33
c-3 -3 -12 -4 -19 -1 -8 3 -5 6 6 6 11 1 17 -2 13 -5z m-391 -43 c0 -11 -4
-17 -9 -14 -5 3 -7 -3 -3 -13 3 -11 1 -26 -5 -34 -8 -12 -9 -9 -5 10 10 44
-52 -92 -74 -165 -16 -51 -32 -79 -57 -102 -20 -18 -40 -30 -45 -27 -12 8 -68
124 -68 142 0 8 7 11 18 8 33 -11 137 66 193 144 28 38 52 70 53 70 1 0 2 -9
2 -19z m-575 -58 c-12 -20 -14 -14 -5 12 4 9 9 14 11 11 3 -2 0 -13 -6 -23z
m1176 -15 c-3 -8 -6 -5 -6 6 -1 11 2 17 5 13 3 -3 4 -12 1 -19z m-1710 -70
c-3 -7 -5 -2 -5 12 0 14 2 19 5 13 2 -7 2 -19 0 -25z m1410 26 c-3 -3 -12 -4
-19 -1 -8 3 -5 6 6 6 11 1 17 -2 13 -5z m-1420 -141 c-2 -21 -4 -6 -4 32 0 39
2 55 4 38 2 -18 2 -50 0 -70z m1224 20 c-8 -15 -10 -15 -11 -2 0 17 10 32 18
25 2 -3 -1 -13 -7 -23z m-520 -56 c-15 -15 -36 6 -27 28 5 15 7 15 22 0 13
-12 14 -19 5 -28z m889 29 c0 -2 -7 -6 -15 -10 -8 -3 -15 -1 -15 4 0 6 7 10
15 10 8 0 15 -2 15 -4z m-1260 -16 c0 -5 -7 -10 -16 -10 -8 0 -12 5 -9 10 3 6
10 10 16 10 5 0 9 -4 9 -10z m261 -23 c-10 -9 -11 -8 -5 6 3 10 9 15 12 12 3
-3 0 -11 -7 -18z m-316 3 c-11 -5 -27 -9 -35 -9 -13 -1 -13 0 0 9 8 5 24 9 35
9 l20 0 -20 -9z m-68 -6 c-3 -3 -12 -4 -19 -1 -8 3 -5 6 6 6 11 1 17 -2 13 -5z
m217 -9 c-4 -8 -10 -12 -15 -9 -6 3 -16 0 -24 -6 -8 -7 -20 -10 -27 -7 -7 3 2
12 22 20 44 20 51 21 44 2z m1251 6 c8 -14 -8 -21 -34 -14 -17 4 -19 8 -9 14
17 11 35 11 43 0z m155 -5 c0 -3 -4 -8 -10 -11 -5 -3 -10 -1 -10 4 0 6 5 11
10 11 6 0 10 -2 10 -4z m-1253 -28 c-3 -8 -6 -5 -6 6 -1 11 2 17 5 13 3 -3 4
-12 1 -19z m406 -8 c-10 -11 -63 -24 -63 -16 0 9 54 34 63 29 5 -3 5 -9 0 -13z
m-413 -30 c0 -5 -5 -10 -11 -10 -5 0 -7 5 -4 10 3 6 8 10 11 10 2 0 4 -4 4
-10z m475 -40 c-3 -5 -11 -10 -16 -10 -6 0 -7 5 -4 10 3 6 11 10 16 10 6 0 7
-4 4 -10z m442 -6 c-3 -3 -12 -4 -19 -1 -8 3 -5 6 6 6 11 1 17 -2 13 -5z
m-746 -21 c13 -16 12 -17 -3 -4 -10 7 -18 15 -18 17 0 8 8 3 21 -13z m692 10
c-7 -2 -19 -2 -25 0 -7 3 -2 5 12 5 14 0 19 -2 13 -5z m-623 -80 c0 -8 -38 17
-51 33 -9 11 -2 9 19 -6 17 -13 32 -25 32 -27z"/>
<path d="M6070 1890 c-8 -5 -10 -10 -5 -10 6 0 17 5 25 10 8 5 11 10 5 10 -5
0 -17 -5 -25 -10z"/>
<path d="M4485 2144 c-289 -12 -477 -27 -525 -41 -56 -16 -90 -37 -90 -57 0
-7 4 -6 8 2 6 9 56 12 203 12 107 -1 406 2 664 5 439 7 703 -1 773 -21 21 -6
23 -4 20 17 -8 59 -157 79 -623 83 -192 2 -386 2 -430 0z m-520 -64 c-11 -5
-27 -9 -35 -9 -13 -1 -13 0 0 9 8 5 24 9 35 9 l20 0 -20 -9z"/>
<path d="M8316 2063 c-16 -42 76 -69 329 -95 172 -19 1101 -17 1207 1 79 14
138 41 138 63 0 9 -3 9 -9 -1 -6 -10 -23 -13 -53 -11 -23 3 -73 4 -110 4 -37
0 -63 3 -58 6 4 3 -168 3 -383 2 -493 -5 -970 15 -1038 43 -11 4 -19 0 -23
-12z m1623 -57 c-2 -2 -17 -6 -34 -10 -22 -5 -26 -4 -15 4 14 9 59 15 49 6z"/>
<path d="M4088 2043 c6 -2 18 -2 25 0 6 3 1 5 -13 5 -14 0 -19 -2 -12 -5z"/>
<path d="M9848 2043 c7 -3 16 -2 19 1 4 3 -2 6 -13 5 -11 0 -14 -3 -6 -6z"/>
<path d="M6201 1624 c0 -11 3 -14 6 -6 3 7 2 16 -1 19 -3 4 -6 -2 -5 -13z"/>
</g>
</svg>
